<svg width="340" height="154" viewBox="0 0 340 154" fill="none" xmlns="http://www.w3.org/2000/svg">
<path d="M24.6094 92.478H12.4146V109.91H23.6572C26.6357 109.91 28.9429 109.189 30.5786 107.749C32.2144 106.284 33.0322 104.16 33.0322 101.377C33.0322 98.5938 32.3242 96.4209 30.9082 94.8584C29.5166 93.2715 27.417 92.478 24.6094 92.478ZM12.4146 72.1167V87.4243H22.9248C25.3906 87.4243 27.3682 86.7529 28.8574 85.4102C30.3711 84.0674 31.1279 82.2241 31.1279 79.8804C31.1279 74.7046 27.9541 72.1167 21.6064 72.1167H12.4146ZM23.6572 115H5.93262V67.0264H21.6064C26.7334 67.0264 30.6763 68.125 33.4351 70.3223C36.2183 72.4951 37.6099 75.7178 37.6099 79.9902C37.6099 82.1143 36.9385 84.0186 35.5957 85.7031C34.2529 87.3877 32.4463 88.6328 30.1758 89.4385C33.0566 90.0732 35.3271 91.4893 36.9873 93.6865C38.6719 95.8594 39.5142 98.4473 39.5142 101.45C39.5142 105.82 38.1104 109.177 35.3027 111.521C32.5195 113.84 28.6377 115 23.6572 115ZM62.3892 94.1992H50.3042V115H43.8223V67.0264H61.1807C66.4541 67.0264 70.4702 68.186 73.229 70.5054C75.9878 72.8247 77.3672 76.2183 77.3672 80.686C77.3672 85.6665 74.8525 89.2554 69.8232 91.4526C74.7793 93.064 77.2573 96.8359 77.2573 102.769V107.273C77.2573 110.544 77.9897 112.852 79.4546 114.194V115H72.7529C71.4102 113.804 70.7388 111.216 70.7388 107.236V102.842C70.7388 100.229 69.9819 98.1421 68.4683 96.5796C66.9546 94.9927 64.9282 94.1992 62.3892 94.1992ZM50.3042 72.1167V89.1089H60.5215C64.1836 89.1089 66.8203 88.4253 68.4316 87.0581C70.0674 85.6665 70.8853 83.5181 70.8853 80.6128C70.8853 74.9487 67.6504 72.1167 61.1807 72.1167H50.3042ZM113.829 115L109.324 102.622H89.2192L84.6782 115H78.0498L96.6167 67.0264H102.183L120.42 115H113.829ZM99.29 75.3394L91.2334 97.2021H107.383L99.4731 75.3394H99.29ZM125.498 101.267C125.498 104.27 126.584 106.589 128.757 108.225C130.954 109.861 133.75 110.679 137.143 110.679C140.537 110.679 143.186 109.995 145.09 108.628C146.994 107.236 147.946 105.381 147.946 103.062C147.946 100.742 147.092 98.8501 145.383 97.3853C143.698 95.9204 140.805 94.6997 136.704 93.7231C125.937 91.1353 120.554 86.3989 120.554 79.5142C120.554 75.73 122.092 72.605 125.168 70.1392C128.244 67.6489 132.272 66.4038 137.253 66.4038C142.258 66.4038 146.347 67.8076 149.521 70.6152C152.695 73.4229 154.221 76.792 154.099 80.7227L154.025 80.9424H147.836C147.836 78.0615 146.896 75.7666 145.017 74.0576C143.137 72.3486 140.537 71.4941 137.216 71.4941C133.92 71.4941 131.394 72.2144 129.636 73.6548C127.902 75.0708 127.036 76.9141 127.036 79.1846C127.036 81.4307 127.963 83.2495 129.819 84.6411C131.674 86.0083 134.714 87.229 138.938 88.3032C149.265 90.9155 154.428 95.7861 154.428 102.915C154.428 106.797 152.854 109.91 149.704 112.253C146.555 114.597 142.417 115.769 137.29 115.769C134.042 115.769 131.04 115.208 128.281 114.084C125.546 112.937 123.337 111.252 121.652 109.031C119.968 106.809 119.162 104.282 119.235 101.45L119.309 101.267H125.498ZM165.511 67.0264V115H158.993V67.0264H165.511ZM179.011 67.0264V109.91H201.716V115H172.529V67.0264H179.011Z" fill="white"/>
<path d="M259.299 66.0605C259.135 66.334 259.012 66.6211 258.93 66.9219C258.875 67.2227 258.834 67.5234 258.807 67.8242H258.52C258.301 67.8242 258.109 67.7969 257.945 67.7422C257.781 67.6602 257.59 67.5918 257.371 67.5371C257.48 68.5762 257.549 69.6289 257.576 70.6953C257.604 71.7617 257.617 72.8145 257.617 73.8535C257.617 75.166 257.604 76.4785 257.576 77.791C257.549 79.0762 257.535 80.375 257.535 81.6875C257.535 82.3164 257.494 82.9453 257.412 83.5742C257.357 84.1758 257.193 84.7637 256.92 85.3379C256.975 85.8027 257.016 86.2539 257.043 86.6914C257.07 87.1016 257.084 87.5391 257.084 88.0039C257.084 89.2891 257.002 90.5742 256.838 91.8594C256.701 93.1172 256.523 94.375 256.305 95.6328C256.223 96.125 256.141 96.6309 256.059 97.1504C256.004 97.6426 255.908 98.1211 255.771 98.5859C255.717 98.7227 255.635 98.8594 255.525 98.9961C255.443 99.1328 255.375 99.2695 255.32 99.4062C254.992 100.117 254.623 100.828 254.213 101.539C253.83 102.223 253.365 102.852 252.818 103.426C252.408 103.453 252.012 103.562 251.629 103.754C251.246 103.945 250.891 104.041 250.562 104.041C250.262 104.041 250.016 103.891 249.824 103.59L249.414 103.754C249.277 103.809 249.127 103.85 248.963 103.877C248.033 103.494 247.145 103.029 246.297 102.482C245.477 101.936 244.793 101.225 244.246 100.35H244.082C243.836 100.35 243.658 100.295 243.549 100.186C243.412 100.049 243.262 99.8848 243.098 99.6934C242.961 99.4746 242.838 99.2832 242.729 99.1191C242.4 98.5996 242.045 98.0801 241.662 97.5605C241.279 97.041 240.828 96.6035 240.309 96.248C240.09 95.4277 239.762 94.7305 239.324 94.1562C238.887 93.5547 238.436 92.9121 237.971 92.2285C237.615 90.8613 236.959 89.5898 236.002 88.4141C236.139 88.2773 236.207 88.1816 236.207 88.127C236.207 87.9902 236.152 87.8809 236.043 87.7988C235.961 87.6895 235.92 87.5801 235.92 87.4707C235.92 87.3613 235.947 87.2793 236.002 87.2246C235.646 86.8418 235.346 86.418 235.1 85.9531C234.881 85.4609 234.662 84.9688 234.443 84.4766C234.252 83.9844 234.033 83.4922 233.787 83C233.568 82.5078 233.295 82.0566 232.967 81.6465C232.666 81.8379 232.475 82.0703 232.393 82.3438C232.338 82.6172 232.311 82.9043 232.311 83.2051C232.311 83.4238 232.311 83.6426 232.311 83.8613C232.338 84.0801 232.352 84.2988 232.352 84.5176C232.352 85.0645 232.283 85.5977 232.146 86.1172C232.037 86.6367 231.955 87.1699 231.9 87.7168C231.873 88.0996 231.859 88.5234 231.859 88.9883C231.887 89.4531 231.873 89.918 231.818 90.3828C231.791 90.8477 231.723 91.2988 231.613 91.7363C231.504 92.1738 231.312 92.543 231.039 92.8438C230.875 94.4023 230.67 95.9609 230.424 97.5195C230.178 99.0781 229.945 100.637 229.727 102.195C229.672 102.469 229.617 102.811 229.562 103.221C229.508 103.631 229.439 104.041 229.357 104.451C229.303 104.889 229.248 105.299 229.193 105.682C229.166 106.092 229.152 106.42 229.152 106.666C229.152 106.939 229.221 107.199 229.357 107.445C229.494 107.719 229.562 107.979 229.562 108.225C229.562 108.416 229.494 108.525 229.357 108.553C229.248 108.607 229.18 108.717 229.152 108.881C229.344 109.482 229.439 110.166 229.439 110.932C229.439 111.15 229.426 111.369 229.398 111.588C229.371 111.834 229.33 112.066 229.275 112.285C229.221 112.422 229.125 112.545 228.988 112.654C228.852 112.791 228.783 112.914 228.783 113.023C228.783 113.133 228.838 113.215 228.947 113.27C228.783 113.434 228.578 113.543 228.332 113.598C228.086 113.652 227.908 113.803 227.799 114.049C227.525 113.83 227.252 113.625 226.979 113.434C226.705 113.27 226.445 113.078 226.199 112.859L226.076 112.818C225.885 112.818 225.721 112.873 225.584 112.982C225.475 113.119 225.324 113.188 225.133 113.188C225.078 113.188 225.023 113.174 224.969 113.146C224.941 113.146 224.9 113.146 224.846 113.146L224.6 112.08C224.518 111.725 224.408 111.396 224.271 111.096C224.49 110.521 224.627 109.865 224.682 109.127C224.764 108.416 224.846 107.691 224.928 106.953C225.01 106.215 225.133 105.504 225.297 104.82C225.461 104.164 225.762 103.59 226.199 103.098C226.199 102.879 226.117 102.729 225.953 102.646C225.816 102.564 225.748 102.387 225.748 102.113C225.748 102.059 225.762 101.963 225.789 101.826C225.844 101.689 225.885 101.539 225.912 101.375C225.967 101.211 226.008 101.061 226.035 100.924C226.09 100.76 226.131 100.637 226.158 100.555C226.377 99.4883 226.541 98.3945 226.65 97.2734C226.787 96.1523 227.129 95.1133 227.676 94.1562C227.648 94.0469 227.635 93.8828 227.635 93.6641C227.635 93.1992 227.676 92.748 227.758 92.3105C227.867 91.873 227.922 91.4219 227.922 90.957C227.922 90.5742 227.881 90.2188 227.799 89.8906C227.881 89.5898 227.99 89.3027 228.127 89.0293C228.291 88.7285 228.373 88.4277 228.373 88.127C228.373 87.8535 228.277 87.6621 228.086 87.5527C228.223 87.4434 228.305 87.3203 228.332 87.1836C228.387 87.0469 228.414 86.9102 228.414 86.7734C228.441 86.6367 228.469 86.5137 228.496 86.4043C228.551 86.2676 228.66 86.1582 228.824 86.0762C228.797 85.8027 228.77 85.543 228.742 85.2969C228.742 85.0508 228.742 84.791 228.742 84.5176C228.742 83.5059 228.797 82.5078 228.906 81.5234C229.016 80.5117 229.07 79.4863 229.07 78.4473C229.07 77.4355 228.988 76.4512 228.824 75.4941L229.275 74.5918C229.002 74.373 228.824 74.0176 228.742 73.5254C228.66 73.0332 228.605 72.5 228.578 71.9258C228.551 71.3516 228.496 70.791 228.414 70.2441C228.359 69.6699 228.209 69.2051 227.963 68.8496V68.4805C227.963 68.043 227.936 67.6191 227.881 67.209C227.826 66.7988 227.799 66.3887 227.799 65.9785V65.6094C227.936 65.5547 228.031 65.459 228.086 65.3223C228.168 65.1855 228.223 65.0488 228.25 64.9121H228.414C228.742 64.9121 229.07 64.8848 229.398 64.8301C229.727 64.7754 230.055 64.748 230.383 64.748H230.916C231.244 64.9941 231.531 65.2812 231.777 65.6094C232.023 65.9375 232.324 66.2383 232.68 66.5117V67.25C232.926 67.5781 233.117 67.9336 233.254 68.3164C233.391 68.6992 233.527 69.0957 233.664 69.5059C233.828 69.916 233.992 70.3125 234.156 70.6953C234.32 71.0781 234.553 71.4062 234.854 71.6797C234.799 71.9531 234.771 72.1719 234.771 72.3359C234.771 72.6914 234.799 73.0469 234.854 73.4023C234.936 73.7578 234.99 74.0996 235.018 74.4277C235.127 74.5645 235.223 74.7422 235.305 74.9609C235.387 75.1523 235.523 75.2754 235.715 75.3301C235.852 76.3965 236.125 77.4082 236.535 78.3652C236.973 79.3223 237.287 80.3203 237.479 81.3594C237.697 81.5781 237.861 81.8516 237.971 82.1797C238.08 82.4805 238.189 82.7812 238.299 83.082C238.436 83.3828 238.572 83.6699 238.709 83.9434C238.873 84.1895 239.105 84.3672 239.406 84.4766C239.57 85.1328 239.775 85.7891 240.021 86.4453C240.268 87.1016 240.65 87.6621 241.17 88.127C241.17 88.6738 241.252 89.1523 241.416 89.5625C241.607 89.9453 241.812 90.3145 242.031 90.6699C242.277 90.998 242.496 91.3262 242.688 91.6543C242.879 91.9824 243.002 92.3379 243.057 92.7207C243.439 93.2949 243.877 93.8281 244.369 94.3203C244.889 94.8125 245.408 95.291 245.928 95.7559C246.475 96.1934 247.008 96.6445 247.527 97.1094C248.047 97.5742 248.525 98.0664 248.963 98.5859C249.264 98.6133 249.51 98.6816 249.701 98.791C249.92 98.873 250.166 98.9414 250.439 98.9961C250.631 98.8594 250.781 98.6953 250.891 98.5039C251.027 98.2852 251.15 98.0664 251.26 97.8477C251.369 97.6289 251.479 97.4238 251.588 97.2324C251.725 97.0137 251.889 96.8223 252.08 96.6582C252.08 96.6035 252.066 96.5625 252.039 96.5352C252.039 96.4805 252.039 96.4258 252.039 96.3711C252.039 96.0703 252.08 95.8379 252.162 95.6738C252.271 95.4824 252.395 95.2773 252.531 95.0586V93.9922C252.75 93.582 252.9 93.1445 252.982 92.6797C253.064 92.2148 253.105 91.75 253.105 91.2852C253.105 90.9023 253.092 90.5195 253.064 90.1367C253.037 89.7266 253.023 89.3164 253.023 88.9062C253.023 88.6602 253.037 88.4141 253.064 88.168C253.092 87.8945 253.146 87.6484 253.229 87.4297C253.283 87.375 253.379 87.293 253.516 87.1836C253.652 87.0469 253.721 86.9648 253.721 86.9375C253.721 86.8008 253.68 86.6641 253.598 86.5273C253.516 86.3906 253.475 86.2539 253.475 86.1172C253.475 85.9258 253.557 85.7754 253.721 85.666V85.4199C253.721 85.2832 253.693 85.1602 253.639 85.0508C253.611 84.9141 253.529 84.8184 253.393 84.7637C253.529 84.5996 253.625 84.4082 253.68 84.1895C253.734 83.9434 253.762 83.6973 253.762 83.4512C253.789 83.1777 253.789 82.918 253.762 82.6719C253.762 82.4258 253.762 82.1934 253.762 81.9746C253.762 81.7285 253.775 81.4688 253.803 81.1953C253.83 80.9219 253.939 80.6895 254.131 80.498C254.049 80.1699 253.994 79.8555 253.967 79.5547C253.939 79.2266 253.926 78.8984 253.926 78.5703C253.926 77.9961 253.953 77.4219 254.008 76.8477C254.062 76.2734 254.09 75.6855 254.09 75.084C254.09 74.8652 254.076 74.6465 254.049 74.4277C254.021 74.1816 254.008 73.9492 254.008 73.7305C254.008 73.5117 254.049 73.416 254.131 73.4434C254.24 73.4434 254.295 73.375 254.295 73.2383C254.295 73.0469 254.268 72.8555 254.213 72.6641C254.186 72.4727 254.158 72.2812 254.131 72.0898C254.076 71.625 254.035 71.1602 254.008 70.6953C253.98 70.2031 253.967 69.7109 253.967 69.2188C253.967 68.918 253.967 68.6172 253.967 68.3164C253.994 67.9883 254.049 67.6738 254.131 67.373C253.967 67.127 253.857 66.8945 253.803 66.6758C253.775 66.4297 253.748 66.2109 253.721 66.0195L253.639 65.4043C253.611 65.1855 253.529 64.9668 253.393 64.748C253.365 64.7207 253.352 64.6387 253.352 64.502C253.352 64.2832 253.406 64.1191 253.516 64.0098C253.379 63.5449 253.188 63.0938 252.941 62.6562C252.723 62.2188 252.586 61.7402 252.531 61.2207C252.23 61.0566 251.998 60.7969 251.834 60.4414C251.697 60.0586 251.629 59.7168 251.629 59.416C251.629 59.0605 251.725 58.7188 251.916 58.3906C252.107 58.0352 252.408 57.8574 252.818 57.8574C252.982 57.8574 253.133 57.9121 253.27 58.0215C253.434 58.1035 253.584 58.2129 253.721 58.3496C253.885 58.459 254.035 58.5684 254.172 58.6777C254.336 58.7598 254.5 58.8008 254.664 58.8008C254.773 58.8008 254.938 58.7734 255.156 58.7188C255.457 59.1289 255.758 59.5117 256.059 59.8672C256.387 60.1953 256.715 60.5371 257.043 60.8926C257.043 61.3574 257.125 61.7812 257.289 62.1641C257.453 62.5469 257.631 62.916 257.822 63.2715C258.014 63.5996 258.178 63.9277 258.314 64.2559C258.479 64.584 258.547 64.9395 258.52 65.3223C258.574 65.5137 258.684 65.6504 258.848 65.7324C259.012 65.8145 259.162 65.9238 259.299 66.0605ZM294.062 108.881C294.062 109.209 293.966 109.482 293.775 109.701C293.584 109.947 293.351 110.139 293.078 110.275C292.804 110.439 292.517 110.576 292.216 110.686C291.916 110.822 291.656 110.959 291.437 111.096C290.808 110.959 290.152 110.836 289.468 110.727C288.785 110.645 288.169 110.467 287.623 110.193C286.501 108.963 285.709 107.541 285.244 105.928C284.806 104.342 284.519 102.756 284.382 101.17C284.328 100.705 284.3 100.254 284.3 99.8164C284.3 99.3516 284.273 98.8867 284.218 98.4219C284.164 98.0117 283.917 97.7656 283.48 97.6836C283.808 97.6289 284.041 97.4648 284.177 97.1914C284.314 96.8906 284.396 96.5625 284.423 96.207C284.451 95.8242 284.451 95.4551 284.423 95.0996C284.423 94.7168 284.451 94.4023 284.505 94.1562C284.287 94.2383 284.095 94.4297 283.931 94.7305C283.767 95.0039 283.617 95.3184 283.48 95.6738C283.343 96.0293 283.207 96.3848 283.07 96.7402C282.96 97.0684 282.851 97.3281 282.742 97.5195C281.593 99.4883 280.253 101.279 278.722 102.893C277.218 104.506 275.66 106.105 274.046 107.691C273.582 107.855 273.144 108.061 272.734 108.307C272.324 108.58 271.941 108.867 271.585 109.168C270.546 109.469 269.562 109.619 268.632 109.619C267.785 109.619 266.951 109.496 266.13 109.25C265.31 109.031 264.572 108.648 263.916 108.102L262.398 104.656C262.316 104.438 262.22 104.219 262.111 104C262.001 103.754 261.919 103.521 261.865 103.303C261.81 103.057 261.783 102.797 261.783 102.523C261.81 102.223 261.824 101.963 261.824 101.744C261.824 100.787 261.851 99.8301 261.906 98.873C261.988 97.8887 262.097 96.918 262.234 95.9609C262.289 95.5781 262.371 95.1816 262.48 94.7715C262.589 94.3613 262.671 93.9648 262.726 93.582V93.1309C262.726 92.9941 262.712 92.8301 262.685 92.6387C262.658 92.4199 262.576 92.2832 262.439 92.2285C263.095 90.6426 263.423 88.9883 263.423 87.2656C263.423 86.9922 263.41 86.7324 263.382 86.4863C263.382 86.2129 263.369 85.9395 263.341 85.666C263.533 85.4746 263.656 85.2559 263.71 85.0098C263.765 84.7363 263.792 84.4629 263.792 84.1895C263.792 83.8887 263.792 83.6016 263.792 83.3281C263.82 83.0547 263.902 82.7949 264.039 82.5488C264.011 82.248 263.984 81.9609 263.957 81.6875C263.957 81.3867 263.957 81.0859 263.957 80.7852C263.957 78.9531 264.093 77.1484 264.367 75.3711C264.667 73.5664 264.818 71.748 264.818 69.916V68.1934C264.818 67.8105 264.818 67.4141 264.818 67.0039C264.845 66.5938 264.9 66.1973 264.982 65.8145C265.091 65.4316 265.242 65.0762 265.433 64.748C265.625 64.3926 265.898 64.0918 266.253 63.8457C266.308 63.8457 266.349 63.8457 266.376 63.8457C266.431 63.8184 266.486 63.8047 266.541 63.8047C266.787 63.8047 266.978 63.873 267.115 64.0098C267.251 64.1191 267.457 64.1602 267.73 64.1328C268.222 64.8438 268.605 65.5957 268.878 66.3887C269.179 67.1816 269.33 68.0156 269.33 68.8906C269.33 69.5469 269.234 70.1895 269.042 70.8184C268.851 71.4473 268.755 72.1035 268.755 72.7871C268.755 73.0605 268.769 73.334 268.796 73.6074C268.824 73.8809 268.837 74.1543 268.837 74.4277C268.837 74.7012 268.796 74.9746 268.714 75.248C268.66 75.4941 268.537 75.7129 268.345 75.9043C268.4 76.4512 268.441 77.0117 268.468 77.5859C268.496 78.1328 268.509 78.6797 268.509 79.2266C268.509 80.7852 268.414 82.3438 268.222 83.9023C268.031 85.4609 267.812 87.0195 267.566 88.5781C267.32 90.1367 267.101 91.6953 266.91 93.2539C266.718 94.8125 266.623 96.3848 266.623 97.9707V99.1602C266.623 99.543 266.65 99.9395 266.705 100.35C266.541 100.732 266.459 101.143 266.459 101.58C266.459 102.182 266.595 102.77 266.869 103.344C267.142 103.918 267.47 104.438 267.853 104.902C267.99 104.93 268.113 104.943 268.222 104.943C268.359 104.971 268.496 104.984 268.632 104.984C269.343 104.984 269.972 104.834 270.519 104.533C271.093 104.232 271.626 103.863 272.119 103.426C272.638 102.988 273.144 102.537 273.636 102.072C274.128 101.607 274.662 101.225 275.236 100.924C276.111 99.8027 276.931 98.6816 277.697 97.5605C278.462 96.4121 279.201 95.2227 279.912 93.9922C279.966 93.3359 280.13 92.6797 280.404 92.0234C280.705 91.3398 281.005 90.6699 281.306 90.0137C281.634 89.3574 281.921 88.7148 282.167 88.0859C282.441 87.457 282.578 86.8555 282.578 86.2812C282.578 85.9805 282.482 85.7754 282.291 85.666C282.564 84.9551 282.769 84.2168 282.906 83.4512C283.042 82.6855 283.152 81.9199 283.234 81.1543C283.343 80.3887 283.453 79.6367 283.562 78.8984C283.671 78.1328 283.835 77.3809 284.054 76.6426C284.054 76.4785 284.041 76.3145 284.013 76.1504C284.013 75.9863 284.013 75.8223 284.013 75.6582C284.013 74.4004 284.136 73.1699 284.382 71.9668C284.628 70.7363 284.751 69.4922 284.751 68.2344C284.751 67.9336 284.724 67.6602 284.669 67.4141C284.642 67.1406 284.628 66.8809 284.628 66.6348C284.628 66.416 284.697 66.2793 284.834 66.2246C284.998 66.1699 285.08 66.0195 285.08 65.7734C285.08 65.5547 285.052 65.3223 284.998 65.0762C284.97 64.8301 284.957 64.5703 284.957 64.2969C284.957 63.4492 285.039 62.6152 285.203 61.7949C285.367 60.9746 285.449 60.1406 285.449 59.293V58.8008C285.449 58.6094 285.421 58.4316 285.367 58.2676C285.558 57.9668 285.818 57.7754 286.146 57.6934C286.474 57.584 286.789 57.5293 287.089 57.5293C287.582 57.5293 287.992 57.584 288.32 57.6934C288.839 59.0879 289.277 60.5234 289.632 62C289.988 63.4492 290.275 64.9258 290.494 66.4297C290.548 66.7852 290.617 67.168 290.699 67.5781C290.808 67.9609 290.863 68.3438 290.863 68.7266C290.863 68.8086 290.835 68.9043 290.781 69.0137C290.753 69.123 290.726 69.2324 290.699 69.3418C290.671 69.5605 290.644 69.7793 290.617 69.998C290.617 70.2168 290.617 70.4355 290.617 70.6543C290.617 71.3105 290.658 71.9668 290.74 72.623C290.822 73.2793 290.863 73.9492 290.863 74.6328C290.863 75.3984 290.753 76.1367 290.535 76.8477C290.343 77.5312 290.193 78.2559 290.084 79.0215C289.974 79.8145 289.933 80.5938 289.96 81.3594C289.988 82.125 289.933 82.9043 289.796 83.6973C289.742 84.0254 289.66 84.3535 289.55 84.6816C289.441 84.9824 289.386 85.3105 289.386 85.666C289.386 85.9121 289.4 86.1582 289.427 86.4043C289.482 86.6504 289.509 86.9102 289.509 87.1836C289.509 87.5938 289.414 87.9082 289.222 88.127C289.277 88.3457 289.318 88.5508 289.345 88.7422C289.373 88.9062 289.427 89.0977 289.509 89.3164C289.373 89.4805 289.277 89.6582 289.222 89.8496C289.167 90.041 289.14 90.2461 289.14 90.4648C289.14 90.7383 289.154 90.998 289.181 91.2441C289.209 91.4629 289.222 91.6953 289.222 91.9414C289.222 92.5156 289.126 93.0625 288.935 93.582C288.771 94.1016 288.662 94.6348 288.607 95.1816C288.58 95.5645 288.566 95.9473 288.566 96.3301C288.593 96.6855 288.607 97.0547 288.607 97.4375C288.607 97.8477 288.58 98.2441 288.525 98.627C288.498 99.0098 288.388 99.3926 288.197 99.7754C288.251 99.9395 288.32 100.104 288.402 100.268C288.484 100.432 288.607 100.555 288.771 100.637C288.771 101.484 288.88 102.346 289.099 103.221C289.345 104.068 289.673 104.875 290.084 105.641C290.166 105.805 290.289 105.928 290.453 106.01C290.617 106.092 290.767 106.174 290.904 106.256C291.041 106.365 291.15 106.488 291.232 106.625C291.314 106.762 291.328 106.967 291.273 107.24C291.328 107.268 291.41 107.281 291.519 107.281C291.738 107.281 291.916 107.227 292.052 107.117C292.216 107.008 292.408 106.953 292.626 106.953H292.914C293.16 107.199 293.406 107.486 293.652 107.814C293.925 108.143 294.062 108.498 294.062 108.881Z" fill="#EFF622"/>
<path d="M47 49.5V52H134.5V49.5C131 44.3333 117 34 89 34C61 34 49.3333 44.3333 47 49.5Z" fill="white"/>
<path d="M287.5 36.5L287.5 34L200 34L200 36.5C203.5 41.6667 217.5 52 245.5 52C273.5 52 285.167 41.6667 287.5 36.5Z" fill="white"/>
<rect x="4" y="51" width="300" height="2" fill="white"/>
<rect x="159" width="6.5" height="70" fill="white"/>
<rect x="172.5" width="6.5" height="70" fill="white"/>
</svg>
